<?xml version="1.0" encoding="UTF-8"?>
<!-- Created with Inkscape (http://www.inkscape.org/) -->
<svg width="500" height="16" version="1.1" viewBox="0 0 132.29 4.2333" xmlns="http://www.w3.org/2000/svg">
 <path d="m1.2531 1.8648q0.016933 0.080433 0.0508 0.19897 0.033867 0.11853 0.071967 0.26247 0.042333 0.14393 0.0889 0.30903 0.0508 0.1651 0.097367 0.33867 0-0.22013-0.00423-0.4699-0.00423-0.254-0.00847-0.51647-0.00423-0.26247-0.00847-0.52917-0.00423-0.27093-0.00423-0.5207h0.4826q-0.0127 0.32173-0.0254 0.66463-0.0127 0.33867-0.029633 0.67733-0.016933 0.33443-0.042333 0.6604-0.021167 0.32597-0.0508 0.61807h-0.4318q-0.093133-0.2667-0.18627-0.5715-0.093133-0.30903-0.18627-0.58843-0.093133 0.2667-0.19473 0.57997-0.1016 0.31327-0.18627 0.57997h-0.4318q-0.033867-0.2921-0.059267-0.61807-0.0254-0.3302-0.046567-0.66463-0.016933-0.33867-0.029633-0.67733-0.0127-0.3429-0.021167-0.6604h0.4826q-0.004233 0.24977-0.008467 0.51647-0.004233 0.2667-0.008467 0.5334-0.004233 0.26247-0.008467 0.51647-0.004233 0.24977-0.004233 0.4699 0.0381-0.13547 0.084667-0.29633 0.0508-0.16087 0.093133-0.3175 0.046567-0.15663 0.084667-0.28787 0.0381-0.13123 0.059267-0.20743zm0.99483 0.71543q0-0.26247 0.080433-0.46143t0.21167-0.3302q0.13123-0.13547 0.30057-0.2032 0.16933-0.067733 0.34713-0.067733 0.44027 0 0.66887 0.26247 0.2286 0.25823 0.2286 0.75777 0 0.0508-0.00423 0.10583 0 0.055033-0.00423 0.0889h-1.2912q0 0.19473 0.16087 0.30903 0.16087 0.11007 0.41487 0.11007 0.15663 0 0.29633-0.033867 0.14393-0.033867 0.2413-0.067733l0.071967 0.4445q-0.13547 0.046567-0.28787 0.0762-0.1524 0.033867-0.3429 0.033867-0.254 0-0.4572-0.0635-0.19897-0.067734-0.3429-0.19473-0.1397-0.13123-0.2159-0.32173-0.0762-0.1905-0.0762-0.4445zm1.3335-0.20743q0-0.080433-0.021167-0.1524-0.021167-0.0762-0.067733-0.13547-0.046567-0.059267-0.11853-0.093133-0.071967-0.0381-0.1778-0.0381-0.1016 0-0.1778 0.033867-0.071967 0.033867-0.12277 0.093133-0.046567 0.059267-0.0762 0.13547-0.0254 0.0762-0.033867 0.15663zm2.1124 0.1778q0-0.2794-0.093133-0.42757-0.0889-0.14817-0.27517-0.14817-0.084667 0-0.16933 0.0254-0.080433 0.021167-0.1397 0.055033v1.0795q0.059267 0.0127 0.12277 0.016933 0.067733 0.00423 0.1143 0.00423 0.2032 0 0.32173-0.13547 0.11853-0.1397 0.11853-0.4699zm0.52917 0.0127q0 0.23707-0.0635 0.4318-0.0635 0.1905-0.18627 0.32597-0.12277 0.13547-0.30057 0.21167-0.1778 0.071967-0.4064 0.071967-0.2032 0-0.41487-0.029633t-0.3556-0.0762v-2.7898l0.5207-0.0889v0.99483q0.11007-0.0508 0.21167-0.067733 0.1016-0.021167 0.2032-0.021167 0.19473 0 0.3429 0.0762 0.14817 0.071967 0.24553 0.21167 0.1016 0.13547 0.1524 0.32597 0.0508 0.1905 0.0508 0.42333zm3.1919-1.6552q0.49953 0 0.7747 0.20743 0.27517 0.2032 0.27517 0.66887 0 0.4699-0.2794 0.68157-0.27517 0.20743-0.78317 0.20743h-0.18627v0.88477h-0.5207v-2.5866q0.0762-0.016933 0.16933-0.029633 0.097367-0.0127 0.19473-0.016933 0.097367-0.008467 0.1905-0.0127 0.093133-0.004233 0.1651-0.004233zm0.059267 0.45297q-0.046567 0-0.13123 0.00423-0.080433 0-0.127 0.00847v0.84667h0.21167q0.24977 0 0.37677-0.097367 0.127-0.1016 0.127-0.3429 0-0.2286-0.127-0.32173-0.12277-0.097366-0.3302-0.097366zm2.9591 0.7366q-0.0508-0.0127-0.12277-0.0254-0.06773-0.0127-0.1397-0.021167-0.07197-0.0127-0.1397-0.016933-0.06773-0.00423-0.1143-0.00423-0.11007 0-0.2159 0.0127-0.10583 0.00847-0.2159 0.0381v1.4774h-0.52493v-1.8584q0.20743-0.0762 0.42333-0.12277 0.22013-0.046567 0.51223-0.046567 0.04233 0 0.11853 0.00423 0.08043 0.00423 0.16933 0.016933 0.0889 0.00847 0.1778 0.0254 0.09313 0.0127 0.1651 0.0381zm2.2648 0.46143q0 0.23707-0.06773 0.4318-0.06773 0.1905-0.1905 0.3302-0.12277 0.1397-0.29633 0.2159-0.16933 0.0762-0.381 0.0762-0.21167 0-0.38523-0.0762-0.16933-0.0762-0.29633-0.2159-0.12277-0.1397-0.1905-0.3302-0.06773-0.19473-0.06773-0.4318 0-0.23283 0.06773-0.42333 0.07197-0.19473 0.19473-0.3302 0.127-0.1397 0.30057-0.21167 0.17357-0.0762 0.37677-0.0762 0.20743 0 0.37677 0.0762 0.17357 0.071967 0.29633 0.21167 0.127 0.13547 0.19473 0.3302 0.06773 0.1905 0.06773 0.42333zm-1.3462 0.00423q0 0.2667 0.09313 0.4318 0.09737 0.1651 0.30903 0.1651 0.2032 0 0.3048-0.1651 0.10583-0.1651 0.10583-0.4318t-0.09737-0.42757q-0.09313-0.1651-0.3048-0.1651-0.2032 0-0.30903 0.1651-0.1016 0.16087-0.1016 0.42757zm3.1581 0.8636q0 0.2413-0.05927 0.40217-0.05927 0.1651-0.1651 0.26247-0.1016 0.1016-0.24553 0.14393-0.1397 0.042333-0.3048 0.042333-0.2032 0-0.37677-0.0508-0.17357-0.0508-0.33443-0.13123l0.16087-0.44027q0.10583 0.059267 0.254 0.11007 0.1524 0.055033 0.27517 0.055033 0.13123 0 0.2032-0.080433 0.07197-0.0762 0.07197-0.28787v-1.452h-0.80433v-0.4318h1.325zm-0.0635-2.4299q0 0.1524-0.09737 0.2413t-0.23283 0.0889q-0.13547 0-0.23283-0.0889-0.09313-0.0889-0.09313-0.2413 0-0.15663 0.09313-0.24553 0.09737-0.0889 0.23283-0.0889 0.13547 0 0.23283 0.0889 0.09737 0.0889 0.09737 0.24553zm0.61807 1.5833q0-0.26247 0.08043-0.46143t0.21167-0.3302q0.13123-0.13547 0.30057-0.2032 0.16933-0.067733 0.34713-0.067733 0.44027 0 0.66887 0.26247 0.2286 0.25823 0.2286 0.75777 0 0.0508-0.0042 0.10583 0 0.055033-0.0042 0.0889h-1.2912q0 0.19473 0.16087 0.30903 0.16087 0.11007 0.41487 0.11007 0.15663 0 0.29633-0.033867 0.14393-0.033867 0.2413-0.067733l0.07197 0.4445q-0.13547 0.046567-0.28787 0.0762-0.1524 0.033867-0.3429 0.033867-0.254 0-0.4572-0.0635-0.19897-0.067733-0.3429-0.19473-0.1397-0.13123-0.2159-0.32173-0.0762-0.1905-0.0762-0.4445zm1.3335-0.20743q0-0.080433-0.02117-0.1524-0.02117-0.0762-0.06773-0.13547-0.04657-0.059267-0.11853-0.093133-0.07197-0.0381-0.1778-0.0381-0.1016 0-0.1778 0.033867-0.07197 0.033867-0.12277 0.093133-0.04657 0.059267-0.0762 0.13547-0.0254 0.0762-0.03387 0.15663zm0.8382 0.1905q0-0.2159 0.06773-0.4064 0.06773-0.1905 0.20743-0.3302 0.1397-0.14393 0.35137-0.22437 0.2159-0.084667 0.51223-0.084667 0.1778 0 0.32173 0.0254t0.2921 0.084667l-0.1143 0.4191q-0.08467-0.029633-0.1905-0.0508-0.1016-0.0254-0.26247-0.0254-0.18627 0-0.31327 0.046567-0.12277 0.042333-0.19897 0.12277-0.0762 0.0762-0.11007 0.18627-0.03387 0.11007-0.03387 0.23707 0 0.27517 0.1524 0.4318 0.15663 0.15663 0.52917 0.15663 0.12277 0 0.254-0.016933 0.13547-0.016933 0.24553-0.055033l0.0762 0.42757q-0.11007 0.042333-0.2667 0.067733-0.15663 0.029633-0.3683 0.029633-0.3048 0-0.52493-0.080433-0.2159-0.080433-0.3556-0.22013-0.13969-0.1397-0.20743-0.3302-0.0635-0.1905-0.0635-0.41063zm2.5358-0.56303h-0.45297v-0.4318h0.45297v-0.49953l0.5207-0.084667v0.5842h0.83397v0.4318h-0.83397v0.80433q0 0.11007 0.02117 0.1778 0.02117 0.067733 0.05927 0.10583 0.0381 0.0381 0.09313 0.0508t0.12277 0.0127q0.07197 0 0.13123-0.00423 0.0635-0.00423 0.11853-0.0127 0.05927-0.0127 0.11853-0.033867 0.0635-0.021167 0.13547-0.055033l0.07197 0.44873q-0.14393 0.059267-0.31327 0.084667-0.1651 0.0254-0.32173 0.0254-0.18203 0-0.32173-0.029633t-0.23707-0.1143q-0.09737-0.084667-0.14817-0.23707-0.0508-0.15663-0.0508-0.4064zm2.4765 1.1642q0.1905 0 0.2921-0.0254 0.1016-0.029633 0.1016-0.1143 0-0.055033-0.03387-0.093133-0.02963-0.0381-0.0889-0.0635-0.05503-0.029633-0.13123-0.055033-0.07197-0.0254-0.1524-0.0508-0.1143-0.033867-0.23283-0.0762-0.11853-0.046567-0.2159-0.1143-0.09737-0.067733-0.16087-0.16933-0.0635-0.10583-0.0635-0.26247 0-0.127 0.04657-0.23707 0.0508-0.1143 0.1524-0.19897 0.10583-0.0889 0.2667-0.13547 0.16087-0.0508 0.38523-0.0508 0.19473 0 0.35983 0.029633 0.16933 0.029633 0.2921 0.084667l-0.08043 0.44027q-0.07197-0.021167-0.22437-0.067733-0.1524-0.0508-0.3429-0.0508-0.19897 0-0.27093 0.0508-0.06773 0.046567-0.06773 0.1016 0 0.046567 0.02963 0.084667 0.03387 0.033867 0.08467 0.0635 0.05503 0.029633 0.12277 0.059267 0.07197 0.0254 0.1524 0.0508 0.1143 0.0381 0.23707 0.084667 0.12277 0.046567 0.22013 0.11853 0.1016 0.067733 0.1651 0.1778 0.0635 0.10583 0.0635 0.26247 0 0.12277-0.04657 0.23283-0.04657 0.11007-0.15663 0.1905-0.10583 0.080433-0.2794 0.127-0.17357 0.046567-0.42757 0.046567-0.25823 0-0.44027-0.059267t-0.2921-0.10583l0.08043-0.43603q0.14817 0.059267 0.31327 0.11007 0.16933 0.0508 0.3429 0.0508zm2.5908 0.059267q0 0.18627-0.1143 0.28363-0.1143 0.097367-0.26247 0.097367-0.0762 0-0.14393-0.0254-0.06773-0.0254-0.12277-0.071967-0.0508-0.0508-0.08467-0.11853-0.02963-0.071967-0.02963-0.1651 0-0.0889 0.02963-0.15663 0.03387-0.071967 0.08467-0.11853 0.05503-0.046567 0.12277-0.071967 0.06773-0.0254 0.14393-0.0254 0.14817 0 0.26247 0.097367t0.1143 0.27517zm0-1.2827q0 0.18627-0.1143 0.28363-0.1143 0.097367-0.26247 0.097367-0.0762 0-0.14393-0.0254-0.06773-0.0254-0.12277-0.071967-0.0508-0.0508-0.08467-0.11853-0.02963-0.071967-0.02963-0.1651 0-0.0889 0.02963-0.15663 0.03387-0.071967 0.08467-0.11853 0.05503-0.046567 0.12277-0.071967 0.06773-0.0254 0.14393-0.0254 0.14817 0 0.26247 0.097367t0.1143 0.27517z" fill="#999" stroke-linecap="square" stroke-width=".026" style="paint-order:stroke fill markers" aria-label="Web Projects: "/>
</svg>
