<?xml version="1.0" encoding="UTF-8"?>
<!-- Created with Inkscape (http://www.inkscape.org/) -->
<svg width="500" height="16" version="1.1" viewBox="0 0 132.29 4.2333" xmlns="http://www.w3.org/2000/svg">
 <path d="m10.291 1.7378q0 0.2413-0.127 0.42757-0.127 0.18203-0.3429 0.28363 0.0635 0.1016 0.1397 0.23283 0.080433 0.127 0.16087 0.27517 0.08043 0.14393 0.15663 0.30057 0.08043 0.1524 0.14817 0.30057h-0.37253q-0.127-0.3048-0.2794-0.5842-0.14817-0.2794-0.28787-0.45297-0.0254 0.00423-0.0762 0.00423-0.046567 0-0.0635 0h-0.29633v1.0329h-0.35137v-2.5823q0.0635-0.016933 0.14393-0.029633 0.084667-0.0127 0.16933-0.016933 0.0889-0.008467 0.17357-0.0127 0.084667-0.004233 0.1524-0.004233 0.47413 0 0.7112 0.20743 0.2413 0.20743 0.2413 0.61807zm-0.92287-0.52493q-0.097367 0-0.1905 0.00423-0.0889 0-0.127 0.00847v1.0118h0.22437q0.1524 0 0.27093-0.021167 0.12277-0.021167 0.20743-0.0762 0.0889-0.059267 0.13547-0.15663 0.046567-0.1016 0.046567-0.26247 0-0.1524-0.046567-0.24977-0.046567-0.097367-0.12277-0.1524-0.0762-0.059267-0.18203-0.080433-0.1016-0.0254-0.2159-0.0254zm2.3114 0.33443q0.39793 0 0.61383 0.24977 0.2159 0.24553 0.2159 0.7493v0.12277h-1.4055q0.02117 0.3048 0.19897 0.46567 0.18203 0.15663 0.508 0.15663 0.18627 0 0.3175-0.029633t0.19897-0.0635l0.04657 0.29633q-0.0635 0.033867-0.2286 0.071967t-0.37253 0.0381q-0.254 0-0.44873-0.0762-0.1905-0.080433-0.3175-0.2159-0.127-0.13547-0.1905-0.32173-0.0635-0.1905-0.0635-0.41063 0-0.26247 0.08043-0.4572t0.21167-0.32173q0.13123-0.127 0.29633-0.1905 0.1651-0.0635 0.33867-0.0635zm0.47413 0.8382q0-0.24977-0.13123-0.3937-0.13123-0.14817-0.34713-0.14817-0.12277 0-0.22437 0.046567-0.09737 0.046567-0.16933 0.12277-0.07197 0.0762-0.1143 0.17357-0.04233 0.097367-0.05503 0.19897zm1.6256 0.92287q0.13123 0 0.23283-0.00847 0.10583-0.00847 0.17357-0.021167v-0.5842q-0.06773-0.021167-0.1651-0.033867-0.09313-0.0127-0.19897-0.0127-0.09737 0-0.1905 0.016933-0.09313 0.0127-0.1651 0.0508t-0.11853 0.1016q-0.04657 0.059267-0.04657 0.1524 0 0.1905 0.127 0.2667 0.13123 0.071967 0.35137 0.071967zm-0.03387-1.7611q0.22013 0 0.3683 0.055033 0.1524 0.055033 0.24553 0.1524 0.09313 0.097367 0.13123 0.23707 0.0381 0.1397 0.0381 0.3048v1.2277q-0.12277 0.021167-0.32597 0.0508-0.19897 0.029633-0.41063 0.029633-0.16087 0-0.31327-0.029633-0.1524-0.0254-0.27093-0.093133-0.11853-0.071967-0.1905-0.19473-0.07197-0.12277-0.07197-0.31327 0-0.16933 0.07197-0.28363 0.0762-0.11853 0.1905-0.1905 0.11853-0.071967 0.2667-0.1016 0.1524-0.033867 0.3048-0.033867 0.20743 0 0.4064 0.046567v-0.097367q0-0.0889-0.02117-0.16933-0.01693-0.084667-0.07197-0.1524-0.0508-0.067733-0.14393-0.10583-0.0889-0.042333-0.23283-0.042333-0.18203 0-0.3175 0.0254-0.13547 0.0254-0.20743 0.0508l-0.04233-0.28787q0.07197-0.033867 0.23707-0.059267 0.16933-0.0254 0.35983-0.0254zm1.2785 1.0329q0-0.2667 0.08467-0.46143 0.08467-0.19473 0.23283-0.32173 0.14817-0.127 0.3429-0.18627 0.19897-0.0635 0.42333-0.0635 0.14393 0 0.28363 0.021167 0.14393 0.016933 0.3048 0.067733l-0.08043 0.30057q-0.1397-0.0508-0.25823-0.0635-0.1143-0.016933-0.23283-0.016933-0.1524 0-0.28787 0.042333-0.13547 0.0381-0.23707 0.127-0.09737 0.084667-0.15663 0.22437-0.05927 0.13547-0.05927 0.3302 0 0.18627 0.05503 0.32173 0.05503 0.13123 0.1524 0.22013 0.1016 0.084667 0.2413 0.127 0.1397 0.042333 0.30903 0.042333 0.13547 0 0.25823-0.0127 0.127-0.016933 0.27517-0.067733l0.0508 0.2921q-0.14817 0.055033-0.30057 0.0762-0.1524 0.0254-0.3302 0.0254-0.23707 0-0.43603-0.0635-0.19473-0.067733-0.33866-0.19473-0.1397-0.127-0.22013-0.3175-0.0762-0.19473-0.0762-0.44873zm2.9379-0.98637h0.82973v0.2921h-0.82973v0.9144q0 0.14817 0.02117 0.2413 0.02117 0.093133 0.06773 0.1524 0.0508 0.055033 0.127 0.0762t0.18627 0.021167q0.1524 0 0.24553-0.0254 0.09313-0.0254 0.1778-0.067733l0.0508 0.29633q-0.05927 0.0254-0.1905 0.067733-0.127 0.042333-0.3175 0.042333-0.22013 0-0.35983-0.0508t-0.22013-0.1524q-0.0762-0.1016-0.10583-0.24977-0.02963-0.1524-0.02963-0.35137v-0.9144h-0.41487v-0.2921h0.41487v-0.55033l0.34713-0.059267zm2.4596 1.6933q0 0.127-0.08467 0.22437-0.08467 0.097366-0.22437 0.097366-0.14393 0-0.2286-0.097366-0.08467-0.097367-0.08467-0.22437 0-0.13123 0.08467-0.2286 0.08467-0.097367 0.2286-0.097367 0.1397 0 0.22437 0.097367 0.08467 0.097367 0.08467 0.2286zm0-1.3674q0 0.127-0.08467 0.22437-0.08467 0.097367-0.22437 0.097367-0.14393 0-0.2286-0.097367-0.08467-0.097366-0.08467-0.22437 0-0.13123 0.08467-0.2286 0.08467-0.097367 0.2286-0.097367 0.1397 0 0.22437 0.097367 0.08467 0.097366 0.08467 0.2286z" fill="#cc6" stroke-linecap="square" stroke-width=".026" style="paint-order:stroke fill markers" aria-label="    React: "/>
</svg>
