<?xml version="1.0" encoding="UTF-8"?>
<!-- Created with Inkscape (http://www.inkscape.org/) -->
<svg width="500" height="16" version="1.1" viewBox="0 0 500 16" xmlns="http://www.w3.org/2000/svg">
 <g fill="#cc6" stroke-linecap="square" stroke-width=".098268" style="paint-order:stroke fill markers" aria-label="user@github.com:~/David-Lyo$ list --all">
  <path d="m5.776 12.04q-0.432 0.112-1.152 0.24-0.704 0.128-1.664 0.128-0.848 0-1.408-0.24-0.56-0.256-0.912-0.704-0.352-0.464-0.496-1.088-0.144-0.624-0.144-1.376v-4.176h1.312v3.888q0 1.376 0.4 1.952 0.416 0.576 1.376 0.576 0.208 0 0.416-0.016 0.224-0.016 0.416-0.032 0.192-0.032 0.336-0.048 0.144-0.032 0.192-0.048v-6.272h1.328zm6.752-1.648q0-0.4-0.336-0.656-0.32-0.256-0.816-0.448-0.48-0.192-1.056-0.368-0.576-0.192-1.072-0.464-0.48-0.272-0.816-0.672-0.32-0.4-0.32-1.04 0-0.896 0.72-1.488 0.736-0.608 2.288-0.608 0.608 0 1.248 0.096 0.656 0.08 1.12 0.224l-0.24 1.184q-0.128-0.064-0.352-0.128-0.224-0.08-0.512-0.128-0.288-0.064-0.624-0.096-0.32-0.032-0.624-0.032-1.728 0-1.728 0.944 0 0.336 0.32 0.576 0.336 0.224 0.832 0.416t1.072 0.4q0.576 0.192 1.072 0.48t0.816 0.704q0.336 0.4 0.336 1.024 0 1.008-0.784 1.568-0.784 0.544-2.48 0.544-0.768 0-1.408-0.128t-1.216-0.384l0.256-1.2q0.56 0.256 1.168 0.432 0.624 0.16 1.328 0.16 1.808 0 1.808-0.912zm6.528-5.744q1.504 0 2.32 0.944 0.816 0.928 0.816 2.832v0.464h-5.312q0.08 1.152 0.752 1.76 0.688 0.592 1.92 0.592 0.704 0 1.2-0.112t0.752-0.24l0.176 1.12q-0.24 0.128-0.864 0.272t-1.408 0.144q-0.96 0-1.696-0.288-0.72-0.304-1.2-0.816t-0.72-1.216q-0.24-0.72-0.24-1.552 0-0.992 0.304-1.728t0.8-1.216 1.12-0.72 1.28-0.24zm1.792 3.168q0-0.944-0.496-1.488-0.496-0.56-1.312-0.56-0.464 0-0.848 0.176-0.368 0.176-0.64 0.464t-0.432 0.656-0.208 0.752zm3.776 4.432v-7.024q1.632-0.56 3.296-0.56 0.512 0 0.976 0.048 0.464 0.032 1.024 0.16l-0.24 1.168q-0.512-0.144-0.912-0.176-0.384-0.048-0.848-0.048-0.976 0-1.984 0.272v6.16zm13.776-1.008q-0.48 0.192-0.976 0.272-0.496 0.064-0.912 0.064-0.56 0-1.04-0.176-0.48-0.192-0.848-0.576-0.352-0.384-0.56-0.976-0.192-0.608-0.192-1.44 0-1.488 0.768-2.256 0.768-0.784 2-0.784 0.128 0 0.24 0.016 0.128 0 0.256 0.016 0-1.008-0.416-1.6t-1.328-0.592q-0.56 0-1.024 0.272t-0.8 0.88q-0.336 0.592-0.528 1.536t-0.192 2.288q0 1.008 0.192 1.952 0.192 0.928 0.592 1.632 0.416 0.704 1.04 1.12 0.64 0.432 1.52 0.432 0.64 0 1.328-0.208l0.128 1.072q-0.848 0.224-1.568 0.224-1.168 0-2.032-0.528-0.848-0.512-1.408-1.36-0.544-0.848-0.816-1.936-0.272-1.088-0.272-2.224 0-1.648 0.288-2.832 0.304-1.184 0.816-1.936 0.528-0.752 1.216-1.104 0.688-0.368 1.488-0.368 1.408 0 2.224 0.96 0.816 0.944 0.816 2.64zm-3.248-2.832q0 0.32 0.032 0.688 0.048 0.368 0.192 0.688 0.144 0.304 0.4 0.528 0.272 0.208 0.736 0.208 0.128 0 0.288-0.016t0.336-0.064v-3.92q-0.144-0.048-0.288-0.064-0.128-0.016-0.256-0.016-0.688 0-1.072 0.544-0.368 0.528-0.368 1.424zm9.296 3.152q-0.224 0.128-0.688 0.272t-1.072 0.144q-0.656 0-1.232-0.208-0.56-0.224-0.992-0.656-0.416-0.448-0.672-1.12-0.24-0.688-0.24-1.616 0-0.816 0.224-1.488 0.24-0.688 0.672-1.184 0.448-0.496 1.088-0.768 0.64-0.288 1.456-0.288 0.96 0 1.632 0.144 0.688 0.128 1.152 0.256v6.624q0 1.728-0.88 2.496-0.864 0.768-2.624 0.768-0.72 0-1.312-0.112-0.576-0.112-1.024-0.272l0.24-1.168q0.416 0.176 0.944 0.288 0.544 0.112 1.184 0.112 1.152 0 1.648-0.464t0.496-1.504zm0-5.568q-0.192-0.064-0.528-0.112-0.336-0.064-0.912-0.064-1.024 0-1.568 0.704-0.528 0.704-0.528 1.872 0 0.64 0.144 1.104 0.16 0.448 0.416 0.752 0.272 0.288 0.608 0.432 0.336 0.128 0.72 0.128 0.496 0 0.928-0.144 0.448-0.144 0.72-0.336zm5.808-2.32q-0.416 0-0.72-0.288t-0.304-0.784 0.304-0.784 0.72-0.288q0.432 0 0.72 0.288 0.304 0.288 0.304 0.784t-0.304 0.784q-0.288 0.288-0.72 0.288zm-0.336 2.256h-2.144v-1.104h3.456v4.56q0 1.104 0.304 1.488 0.304 0.368 0.912 0.368 0.464 0 0.848-0.112 0.4-0.112 0.624-0.24l0.192 1.12q-0.096 0.048-0.272 0.128-0.176 0.064-0.416 0.128-0.224 0.064-0.512 0.112-0.272 0.048-0.576 0.048-0.704 0-1.168-0.192t-0.752-0.576q-0.272-0.384-0.384-0.944-0.112-0.576-0.112-1.328zm8.88-1.104h3.136v1.104h-3.136v3.456q0 0.56 0.08 0.912 0.08 0.352 0.256 0.576 0.192 0.208 0.48 0.288t0.704 0.08q0.576 0 0.928-0.096t0.672-0.256l0.192 1.12q-0.224 0.096-0.72 0.256-0.48 0.16-1.2 0.16-0.832 0-1.36-0.192t-0.832-0.576q-0.288-0.384-0.4-0.944-0.112-0.576-0.112-1.328v-3.456h-1.568v-1.104h1.568v-2.08l1.312-0.224zm5.248 7.424v-10.864l1.328-0.224v3.776q0.32-0.128 0.72-0.192 0.4-0.08 0.784-0.08 0.848 0 1.408 0.256 0.576 0.24 0.912 0.688t0.48 1.072 0.144 1.376v4.192h-1.312v-3.904q0-1.376-0.384-1.936-0.384-0.576-1.376-0.576-0.416 0-0.816 0.096-0.384 0.08-0.56 0.16v6.16zm13.728-0.208q-0.432 0.112-1.152 0.24-0.704 0.128-1.664 0.128-0.848 0-1.408-0.24-0.56-0.256-0.912-0.704-0.352-0.464-0.496-1.088-0.144-0.624-0.144-1.376v-4.176h1.312v3.888q0 1.376 0.4 1.952 0.416 0.576 1.376 0.576 0.208 0 0.416-0.016 0.224-0.016 0.416-0.032 0.192-0.032 0.336-0.048 0.144-0.032 0.192-0.048v-6.272h1.328zm3.6-6.944q0.24-0.144 0.688-0.288 0.464-0.16 1.024-0.16 0.752 0 1.344 0.288t0.992 0.8q0.416 0.512 0.624 1.232 0.224 0.704 0.224 1.568 0 0.896-0.256 1.616-0.256 0.72-0.72 1.232-0.464 0.496-1.12 0.768t-1.456 0.272q-0.88 0-1.568-0.128t-1.104-0.256v-10.656l1.328-0.224zm0 6q0.304 0.08 0.608 0.128 0.304 0.032 0.576 0.032 1.104 0 1.728-0.672 0.624-0.688 0.624-2.048 0-0.576-0.112-1.072-0.112-0.512-0.352-0.864-0.24-0.368-0.624-0.576-0.368-0.208-0.896-0.208-0.464 0-0.896 0.192-0.432 0.176-0.656 0.384zm10.72 0.128q0 0.48-0.32 0.848t-0.848 0.368q-0.544 0-0.864-0.368t-0.32-0.848q0-0.496 0.32-0.864 0.32-0.368 0.864-0.368 0.528 0 0.848 0.368 0.32 0.368 0.32 0.864zm3.6-2.672q0-1.008 0.32-1.744t0.88-1.216 1.296-0.704q0.752-0.24 1.6-0.24 0.544 0 1.072 0.08 0.544 0.064 1.152 0.256l-0.304 1.136q-0.528-0.192-0.976-0.24-0.432-0.064-0.88-0.064-0.576 0-1.088 0.16-0.512 0.144-0.896 0.48-0.368 0.32-0.592 0.848-0.224 0.512-0.224 1.248 0 0.704 0.208 1.216 0.208 0.496 0.576 0.832 0.384 0.32 0.912 0.48t1.168 0.16q0.512 0 0.976-0.048 0.48-0.064 1.04-0.256l0.192 1.104q-0.56 0.208-1.136 0.288-0.576 0.096-1.248 0.096-0.896 0-1.648-0.24-0.736-0.256-1.28-0.736-0.528-0.48-0.832-1.2-0.288-0.736-0.288-1.696zm14.576-0.016q0 0.88-0.256 1.6-0.24 0.704-0.688 1.216t-1.072 0.8q-0.624 0.272-1.36 0.272-0.72 0-1.344-0.272-0.608-0.288-1.056-0.8t-0.704-1.216q-0.24-0.72-0.24-1.6t0.24-1.6q0.256-0.72 0.704-1.216 0.448-0.512 1.056-0.784 0.624-0.288 1.344-0.288 0.736 0 1.36 0.288 0.624 0.272 1.072 0.784 0.448 0.496 0.688 1.216 0.256 0.72 0.256 1.6zm-1.36 0q0-1.264-0.544-1.984-0.544-0.736-1.472-0.736-0.912 0-1.456 0.736-0.528 0.72-0.528 1.984 0 1.248 0.528 1.984 0.544 0.72 1.456 0.72 0.928 0 1.472-0.72 0.544-0.736 0.544-1.984zm2.656-3.504q0.96-0.368 1.808-0.368 0.464 0 0.864 0.144 0.416 0.128 0.704 0.416 0.688-0.56 1.472-0.56 0.384 0 0.72 0.144 0.352 0.144 0.608 0.432 0.272 0.288 0.432 0.72t0.16 1.008v5.28h-1.2v-5.312q0-0.576-0.256-0.88t-0.64-0.304q-0.192 0-0.4 0.096t-0.384 0.304q0.096 0.368 0.096 0.816v2.416h-1.2v-2.432q0-0.56-0.176-0.88t-0.688-0.32q-0.32 0-0.72 0.144v6.352h-1.2z" fill="#0f0"/>
  <path d="m124.1 11.224q0 0.48-0.32 0.848t-0.848 0.368q-0.544 0-0.864-0.368t-0.32-0.848q0-0.496 0.32-0.864 0.32-0.368 0.864-0.368 0.528 0 0.848 0.368 0.32 0.368 0.32 0.864zm0-5.168q0 0.48-0.32 0.848t-0.848 0.368q-0.544 0-0.864-0.368t-0.32-0.848q0-0.496 0.32-0.864t0.864-0.368q0.528 0 0.848 0.368t0.32 0.864z"/>
  <path d="m134.32 7.224q-0.048 0.272-0.176 0.624-0.112 0.352-0.352 0.656-0.224 0.304-0.576 0.512t-0.848 0.208q-0.432 0-0.8-0.16-0.352-0.176-0.688-0.384-0.384-0.224-0.736-0.448t-0.768-0.224q-0.224 0-0.384 0.112-0.16 0.096-0.272 0.256-0.096 0.16-0.176 0.368-0.08 0.192-0.128 0.368l-0.912-0.256q0.048-0.272 0.176-0.624t0.352-0.656 0.56-0.512q0.352-0.208 0.864-0.208 0.432 0 0.784 0.176 0.368 0.16 0.704 0.368 0.384 0.224 0.736 0.448 0.368 0.224 0.768 0.224 0.224 0 0.384-0.096 0.16-0.112 0.256-0.272 0.112-0.16 0.192-0.352 0.08-0.208 0.128-0.384zm3.056 7.664h-1.36l4.464-13.824h1.328zm12.896-7.6q0 1.376-0.352 2.336-0.336 0.96-0.944 1.568-0.592 0.592-1.424 0.864-0.816 0.272-1.776 0.272-0.992 0-2-0.24v-9.6q1.008-0.24 2-0.24 0.96 0 1.776 0.272 0.832 0.272 1.424 0.88 0.608 0.608 0.944 1.568 0.352 0.96 0.352 2.32zm-5.184 3.856q0.4 0.048 0.816 0.048 0.72 0 1.28-0.208 0.56-0.224 0.944-0.688 0.384-0.48 0.592-1.216 0.208-0.752 0.208-1.792 0-2.016-0.784-2.96-0.768-0.944-2.288-0.944-0.208 0-0.416 0.016-0.192 0-0.352 0.032zm9.904 0.16q0.496 0 0.88-0.032 0.4-0.032 0.656-0.08v-2.208q-0.256-0.08-0.624-0.128-0.352-0.048-0.752-0.048-0.368 0-0.72 0.064-0.352 0.048-0.624 0.192t-0.448 0.384q-0.176 0.224-0.176 0.576 0 0.72 0.48 1.008 0.496 0.272 1.328 0.272zm-0.128-6.656q0.832 0 1.392 0.208 0.576 0.208 0.928 0.576t0.496 0.896 0.144 1.152v4.64q-0.464 0.08-1.232 0.192-0.752 0.112-1.552 0.112-0.608 0-1.184-0.112-0.576-0.096-1.024-0.352-0.448-0.272-0.72-0.736t-0.272-1.184q0-0.64 0.272-1.072 0.288-0.448 0.72-0.72 0.448-0.272 1.008-0.384 0.576-0.128 1.152-0.128 0.784 0 1.536 0.176v-0.368q0-0.336-0.08-0.64-0.064-0.32-0.272-0.576-0.192-0.256-0.544-0.4-0.336-0.16-0.88-0.16-0.688 0-1.2 0.096t-0.784 0.192l-0.16-1.088q0.272-0.128 0.896-0.224 0.64-0.096 1.36-0.096zm11.568 0.176q-0.288 1.04-0.656 2.048-0.368 0.992-0.752 1.952-0.384 0.944-0.784 1.808-0.4 0.864-0.768 1.616h-1.2q-0.752-1.504-1.52-3.424-0.768-1.92-1.36-4h1.44q0.192 0.704 0.432 1.488 0.256 0.784 0.528 1.568t0.544 1.52q0.288 0.72 0.56 1.296 0.272-0.576 0.56-1.296 0.304-0.736 0.592-1.52t0.544-1.568q0.272-0.784 0.464-1.488zm3.824-1.152q-0.416 0-0.72-0.288t-0.304-0.784 0.304-0.784 0.72-0.288q0.432 0 0.72 0.288 0.304 0.288 0.304 0.784t-0.304 0.784q-0.288 0.288-0.72 0.288zm-0.336 2.256h-2.144v-1.104h3.456v4.56q0 1.104 0.304 1.488 0.304 0.368 0.912 0.368 0.464 0 0.848-0.112 0.4-0.112 0.624-0.24l0.192 1.12q-0.096 0.048-0.272 0.128-0.176 0.064-0.416 0.128-0.224 0.064-0.512 0.112-0.272 0.048-0.576 0.048-0.704 0-1.168-0.192t-0.752-0.576q-0.272-0.384-0.384-0.944-0.112-0.576-0.112-1.328zm10.528 0.464q-0.224-0.208-0.656-0.384-0.432-0.192-0.896-0.192-0.528 0-0.912 0.208-0.368 0.208-0.608 0.576-0.24 0.352-0.352 0.864-0.112 0.496-0.112 1.072 0 1.296 0.608 2 0.608 0.704 1.584 0.704 0.496 0 0.832-0.048 0.352-0.048 0.512-0.096zm0-5.008 1.328-0.224v10.88q-0.432 0.128-1.104 0.256t-1.568 0.128q-0.8 0-1.456-0.272t-1.12-0.768q-0.464-0.512-0.72-1.232-0.256-0.72-0.256-1.616 0-0.864 0.208-1.568 0.224-0.72 0.64-1.232t0.992-0.8q0.592-0.288 1.344-0.288 0.592 0 1.04 0.144t0.672 0.304zm4.704 6.176h3.52v1.248h-3.52zm13.12 3.568v1.12h-5.904v-9.904h1.312v8.784zm1.456 2.512q0.144 0.08 0.4 0.128 0.272 0.048 0.496 0.048 0.784 0 1.216-0.352 0.448-0.336 0.816-1.12-0.896-1.696-1.68-3.632-0.784-1.952-1.296-3.888h1.44q0.16 0.64 0.368 1.392 0.224 0.736 0.496 1.52t0.576 1.584q0.32 0.784 0.672 1.504 0.256-0.736 0.48-1.456 0.224-0.72 0.416-1.44 0.192-0.736 0.384-1.488 0.192-0.768 0.4-1.616h1.376q-0.512 2.08-1.152 4.032-0.624 1.952-1.344 3.616-0.272 0.64-0.592 1.104-0.304 0.464-0.672 0.768t-0.832 0.448-1.056 0.144q-0.304 0-0.672-0.08-0.352-0.08-0.48-0.144zm14.544-5.104q0 0.88-0.256 1.6-0.24 0.704-0.688 1.216t-1.072 0.8q-0.624 0.272-1.36 0.272-0.72 0-1.344-0.272-0.608-0.288-1.056-0.8t-0.704-1.216q-0.24-0.72-0.24-1.6t0.24-1.6q0.256-0.72 0.704-1.216 0.448-0.512 1.056-0.784 0.624-0.288 1.344-0.288 0.736 0 1.36 0.288 0.624 0.272 1.072 0.784 0.448 0.496 0.688 1.216 0.256 0.72 0.256 1.6zm-1.36 0q0-1.264-0.544-1.984-0.544-0.736-1.472-0.736-0.912 0-1.456 0.736-0.528 0.72-0.528 1.984 0 1.248 0.528 1.984 0.544 0.72 1.456 0.72 0.928 0 1.472-0.72 0.544-0.736 0.544-1.984z" fill="#00f"/>
  <path d="m218.64 10.888q0.576 0 0.96-0.08 0.4-0.096 0.624-0.256 0.224-0.176 0.32-0.4 0.096-0.24 0.096-0.512 0-0.4-0.192-0.672-0.192-0.288-0.528-0.496-0.32-0.224-0.736-0.384-0.416-0.176-0.864-0.336-0.432-0.16-0.864-0.352-0.416-0.192-0.752-0.464-0.32-0.288-0.528-0.672-0.208-0.4-0.208-0.976 0-1.024 0.608-1.664t1.76-0.816v-1.648h1.184v1.6q0.64 0.032 1.168 0.16 0.544 0.112 0.864 0.24l-0.272 1.12q-0.336-0.128-0.848-0.256-0.512-0.144-1.296-0.144-0.864 0-1.328 0.32-0.448 0.32-0.448 0.928 0 0.336 0.128 0.56 0.144 0.224 0.4 0.4t0.592 0.32q0.352 0.144 0.784 0.304 0.544 0.208 1.056 0.448 0.512 0.224 0.896 0.544t0.608 0.768q0.24 0.448 0.24 1.072 0 0.944-0.624 1.6t-1.92 0.816v1.84h-1.184v-1.792q-1.008-0.032-1.632-0.224t-0.928-0.368l0.352-1.104q0.432 0.208 1.024 0.4 0.592 0.176 1.488 0.176z"/>
  <path d="m238.38 11.928q-0.048 0.032-0.224 0.112-0.16 0.08-0.432 0.176-0.272 0.08-0.672 0.144-0.384 0.064-0.88 0.064-1.36 0-1.984-0.8-0.624-0.816-0.624-2.368v-6.384h-2.08v-1.632h4.048v8.16q0 0.768 0.304 1.04t0.768 0.272q0.592 0 0.992-0.16t0.528-0.208zm5.072-9.36q0 0.576-0.368 0.912t-0.88 0.336-0.88-0.336q-0.352-0.336-0.352-0.912 0-0.592 0.352-0.928 0.368-0.336 0.88-0.336t0.88 0.336 0.368 0.928zm2.928 9.36q-0.608 0.288-1.152 0.384-0.528 0.112-0.976 0.112-0.768 0-1.296-0.224-0.512-0.224-0.832-0.64-0.304-0.432-0.432-1.04-0.128-0.608-0.128-1.392v-2.768h-2.08v-1.632h4.048v4.656q0 0.672 0.24 1.008 0.256 0.32 0.832 0.32 0.272 0 0.656-0.064 0.384-0.08 0.864-0.304zm4.176-1.168q0.72 0 1.104-0.096 0.384-0.112 0.384-0.432 0-0.208-0.128-0.352-0.112-0.144-0.336-0.24-0.208-0.112-0.496-0.208-0.272-0.096-0.576-0.192-0.432-0.128-0.88-0.288-0.448-0.176-0.816-0.432t-0.608-0.64q-0.24-0.4-0.24-0.992 0-0.48 0.176-0.896 0.192-0.432 0.576-0.752 0.4-0.336 1.008-0.512 0.608-0.192 1.456-0.192 0.736 0 1.36 0.112 0.64 0.112 1.104 0.32l-0.304 1.664q-0.272-0.08-0.848-0.256-0.576-0.192-1.296-0.192-0.752 0-1.024 0.192-0.256 0.176-0.256 0.384 0 0.176 0.112 0.32 0.128 0.128 0.32 0.24 0.208 0.112 0.464 0.224 0.272 0.096 0.576 0.192 0.432 0.144 0.896 0.32t0.832 0.448q0.384 0.256 0.624 0.672 0.24 0.4 0.24 0.992 0 0.464-0.176 0.88t-0.592 0.72q-0.4 0.304-1.056 0.48t-1.616 0.176q-0.976 0-1.664-0.224t-1.104-0.4l0.304-1.648q0.56 0.224 1.184 0.416 0.64 0.192 1.296 0.192zm6.64-4.4h-1.712v-1.632h1.712v-1.888l1.968-0.32v2.208h3.152v1.632h-3.152v3.04q0 0.416 0.08 0.672 0.08 0.256 0.224 0.4t0.352 0.192 0.464 0.048q0.272 0 0.496-0.016 0.24-0.016 0.448-0.048 0.224-0.048 0.448-0.128 0.24-0.08 0.512-0.208l0.272 1.696q-0.544 0.224-1.184 0.32-0.624 0.096-1.216 0.096-0.688 0-1.216-0.112t-0.896-0.432-0.56-0.896q-0.192-0.592-0.192-1.536zm15.52 0.816h4.384v1.936h-4.384zm8 0h4.384v1.936h-4.384zm10.208 3.664q0.32 0 0.624 0 0.304-0.016 0.528-0.048v-1.728q-0.192-0.032-0.464-0.048-0.272-0.032-0.496-0.032-0.304 0-0.592 0.048-0.288 0.032-0.512 0.128-0.208 0.096-0.336 0.272t-0.128 0.464q0 0.512 0.384 0.736 0.384 0.208 0.992 0.208zm-0.176-6.304q0.928 0 1.536 0.224 0.624 0.208 0.992 0.608 0.368 0.384 0.528 0.96 0.16 0.56 0.16 1.264v4.48q-0.432 0.096-1.28 0.224t-1.904 0.128q-0.72 0-1.312-0.128-0.576-0.128-0.992-0.416-0.416-0.304-0.64-0.768-0.224-0.48-0.224-1.168 0-0.656 0.256-1.104t0.688-0.72 0.992-0.384q0.56-0.128 1.168-0.128 0.768 0 1.36 0.128v-0.24q0-0.56-0.352-0.928-0.352-0.384-1.216-0.384-0.56 0-1.088 0.08-0.512 0.08-0.832 0.192l-0.272-1.584q0.368-0.128 1.04-0.224 0.672-0.112 1.392-0.112zm11.632 7.392q-0.048 0.032-0.224 0.112-0.16 0.08-0.432 0.176-0.272 0.08-0.672 0.144-0.384 0.064-0.88 0.064-1.36 0-1.984-0.8-0.624-0.816-0.624-2.368v-6.384h-2.08v-1.632h4.048v8.16q0 0.768 0.304 1.04t0.768 0.272q0.592 0 0.992-0.16t0.528-0.208zm8 0q-0.048 0.032-0.224 0.112-0.16 0.08-0.432 0.176-0.272 0.08-0.672 0.144-0.384 0.064-0.88 0.064-1.36 0-1.984-0.8-0.624-0.816-0.624-2.368v-6.384h-2.08v-1.632h4.048v8.16q0 0.768 0.304 1.04t0.768 0.272q0.592 0 0.992-0.16t0.528-0.208z"/>
 </g>
</svg>
