<?xml version="1.0" encoding="UTF-8"?>
<!-- Created with Inkscape (http://www.inkscape.org/) -->
<svg width="500" height="16" version="1.1" viewBox="0 0 132.29 4.2333" xmlns="http://www.w3.org/2000/svg">
 <path d="m9.9949 3.5581q-0.14393-0.35137-0.27093-0.635-0.127-0.28787-0.24553-0.53763-0.1143-0.24977-0.2286-0.4699-0.1143-0.22437-0.23283-0.44873v2.0913h-0.3175v-2.6204h0.3556q0.17357 0.3175 0.30057 0.55457 0.13123 0.23707 0.23707 0.46143 0.11007 0.22013 0.21167 0.4572 0.1016 0.23283 0.2286 0.54187v-2.0151h0.3175v2.6204zm2.5358-0.98213q0 0.23283-0.06773 0.42333-0.0635 0.18627-0.18203 0.32173-0.11853 0.13547-0.28363 0.21167-0.1651 0.071967-0.35983 0.071967-0.1905 0-0.3556-0.071967-0.16087-0.0762-0.2794-0.21167t-0.18627-0.32173q-0.0635-0.1905-0.0635-0.42333 0-0.23283 0.0635-0.42333 0.06773-0.1905 0.18627-0.32173 0.11853-0.13547 0.2794-0.20743 0.1651-0.0762 0.3556-0.0762 0.19473 0 0.35983 0.0762 0.1651 0.071967 0.28363 0.20743 0.11853 0.13123 0.18203 0.32173 0.06773 0.1905 0.06773 0.42333zm-0.35983 0q0-0.33443-0.14393-0.52493-0.14393-0.19473-0.38947-0.19473-0.2413 0-0.38523 0.19473-0.1397 0.1905-0.1397 0.52493 0 0.3302 0.1397 0.52493 0.14393 0.1905 0.38523 0.1905 0.24553 0 0.38947-0.1905 0.14393-0.19473 0.14393-0.52493zm1.9939-0.56727q-0.05927-0.055033-0.17357-0.1016-0.1143-0.0508-0.23707-0.0508-0.1397 0-0.2413 0.055033-0.09737 0.055033-0.16087 0.1524-0.0635 0.093133-0.09313 0.2286-0.02963 0.13123-0.02963 0.28363 0 0.3429 0.16087 0.52917 0.16087 0.18627 0.4191 0.18627 0.13123 0 0.22013-0.0127 0.09313-0.0127 0.13547-0.0254zm0-1.325 0.35137-0.059267v2.8787q-0.1143 0.033867-0.2921 0.067733-0.1778 0.033867-0.41487 0.033867-0.21167 0-0.38523-0.071967-0.17357-0.071967-0.29633-0.2032-0.12277-0.13547-0.1905-0.32597-0.06773-0.1905-0.06773-0.42757 0-0.2286 0.05503-0.41487 0.05927-0.1905 0.16933-0.32597 0.11007-0.13547 0.26247-0.21167 0.15663-0.0762 0.3556-0.0762 0.15663 0 0.27517 0.0381 0.11853 0.0381 0.1778 0.080433zm1.7484 0.8636q0.39793 0 0.61383 0.24977 0.2159 0.24553 0.2159 0.7493v0.12277h-1.4055q0.02117 0.3048 0.19897 0.46567 0.18203 0.15663 0.508 0.15663 0.18627 0 0.3175-0.029633 0.13123-0.029633 0.19897-0.0635l0.04657 0.29633q-0.0635 0.033867-0.2286 0.071967t-0.37253 0.0381q-0.254 0-0.44873-0.0762-0.1905-0.080433-0.3175-0.2159-0.127-0.13547-0.1905-0.32173-0.0635-0.1905-0.0635-0.41063 0-0.26247 0.08043-0.4572t0.21167-0.32173q0.13123-0.127 0.29633-0.1905 0.1651-0.0635 0.33867-0.0635zm0.47413 0.8382q0-0.24977-0.13123-0.3937-0.13123-0.14817-0.34713-0.14817-0.12277 0-0.22437 0.046567-0.09737 0.046567-0.16933 0.12277-0.07197 0.0762-0.1143 0.17357-0.04233 0.097367-0.05503 0.19897zm1.9177 0.9017q0 0.127-0.08467 0.22437-0.08467 0.097366-0.22437 0.097366-0.14393 0-0.2286-0.097366-0.08467-0.097367-0.08467-0.22437 0-0.13123 0.08467-0.2286 0.08467-0.097367 0.2286-0.097367 0.1397 0 0.22437 0.097367 0.08467 0.097367 0.08467 0.2286zm2.0489-1.9981q-0.11007 0-0.1905-0.0762-0.08043-0.0762-0.08043-0.20743 0-0.13123 0.08043-0.20743 0.08043-0.0762 0.1905-0.0762 0.1143 0 0.1905 0.0762 0.08043 0.0762 0.08043 0.20743 0 0.13123-0.08043 0.20743-0.0762 0.0762-0.1905 0.0762zm-0.82127 0.5969v-0.2921h1.143v1.9431q0 0.2032-0.05927 0.3429-0.05503 0.14393-0.1524 0.23283-0.09313 0.0889-0.22013 0.127-0.12277 0.0381-0.26247 0.0381-0.16087 0-0.32597-0.033867-0.16087-0.033867-0.3048-0.10583l0.10583-0.29633q0.10583 0.0508 0.23283 0.084667 0.13123 0.0381 0.24977 0.0381 0.16933 0 0.2794-0.0889 0.11007-0.084667 0.11007-0.33443v-1.6552zm3.12 1.1811q0-0.10583-0.0889-0.17357-0.08467-0.067733-0.2159-0.11853-0.127-0.0508-0.2794-0.097367-0.1524-0.0508-0.28363-0.12277-0.127-0.071967-0.2159-0.1778-0.08467-0.10583-0.08467-0.27517 0-0.23707 0.1905-0.3937 0.19473-0.16087 0.60537-0.16087 0.16087 0 0.3302 0.0254 0.17357 0.021167 0.29633 0.059267l-0.0635 0.31327q-0.03387-0.016933-0.09313-0.033867-0.05927-0.021167-0.13547-0.033867-0.0762-0.016933-0.1651-0.0254-0.08467-0.00847-0.1651-0.00847-0.4572 0-0.4572 0.24977 0 0.0889 0.08467 0.1524 0.0889 0.059267 0.22013 0.11007 0.13123 0.0508 0.28363 0.10583 0.1524 0.0508 0.28363 0.127 0.13123 0.0762 0.2159 0.18627 0.0889 0.10583 0.0889 0.27093 0 0.2667-0.20743 0.41487-0.20743 0.14393-0.65617 0.14393-0.2032 0-0.37253-0.033867t-0.32173-0.1016l0.06773-0.3175q0.14817 0.067733 0.30903 0.1143 0.1651 0.042333 0.35137 0.042333 0.47837 0 0.47837-0.2413zm2.0024 0.22013q0 0.127-0.08467 0.22437-0.08467 0.097366-0.22437 0.097366-0.14393 0-0.2286-0.097366-0.08467-0.097367-0.08467-0.22437 0-0.13123 0.08467-0.2286 0.08467-0.097367 0.2286-0.097367 0.1397 0 0.22437 0.097367 0.08467 0.097367 0.08467 0.2286zm0-1.3674q0 0.127-0.08467 0.22437-0.08467 0.097367-0.22437 0.097367-0.14393 0-0.2286-0.097367-0.08467-0.097366-0.08467-0.22437 0-0.13123 0.08467-0.2286 0.08467-0.097367 0.2286-0.097367 0.1397 0 0.22437 0.097367 0.08467 0.097366 0.08467 0.2286z" fill="#cc6" stroke-linecap="square" stroke-width=".026" style="paint-order:stroke fill markers" aria-label="    Node.js: "/>
</svg>
