<?xml version="1.0" encoding="UTF-8"?>
<!-- Created with Inkscape (http://www.inkscape.org/) -->
<svg width="500" height="16" version="1.1" viewBox="0 0 132.29 4.2333" xmlns="http://www.w3.org/2000/svg">
 <path d="m5.0969 3.5793q-0.0635 0-0.14817-0.00423-0.084667-0.00423-0.16933-0.0127-0.084667-0.00423-0.16933-0.016933-0.084667-0.0127-0.14817-0.029633v-2.54q0.0635-0.016933 0.14393-0.029633 0.084667-0.0127 0.16933-0.016933 0.0889-0.008467 0.16933-0.0127 0.084667-0.004233 0.1524-0.004233 0.19473 0 0.36407 0.033867t0.2921 0.1143q0.127 0.080433 0.19473 0.21167 0.071967 0.13123 0.071967 0.32597 0 0.093133-0.029633 0.18203-0.029633 0.084667-0.084667 0.16087-0.0508 0.0762-0.12277 0.13547-0.067733 0.055033-0.14817 0.084667 0.2159 0.059267 0.35983 0.22013 0.14817 0.15663 0.14817 0.41063 0 0.38947-0.24977 0.58843-0.24977 0.19897-0.79587 0.19897zm-0.28787-1.2446v0.93557q0.00847 0.00423 0.093133 0.0127 0.0889 0.00423 0.22013 0.00423 0.13123 0 0.24977-0.021167 0.12277-0.021167 0.2159-0.0762 0.093133-0.059267 0.14817-0.1524 0.059267-0.093133 0.059267-0.2413 0-0.13123-0.055033-0.22013-0.0508-0.0889-0.1397-0.1397-0.084667-0.055033-0.19897-0.0762-0.1143-0.0254-0.23707-0.0254zm0-0.28787h0.27517q0.10583 0 0.21167-0.021167 0.10583-0.021167 0.1905-0.067733 0.084667-0.046567 0.13547-0.127 0.0508-0.080433 0.0508-0.2032 0-0.1143-0.046567-0.19473-0.046567-0.080433-0.12277-0.13123-0.0762-0.0508-0.1778-0.071967-0.097367-0.021167-0.20743-0.021167-0.11007 0-0.19473 0.00423-0.080433 0-0.1143 0.00847zm2.6204 1.2615q0.13123 0 0.23283-0.00847 0.10583-0.00847 0.17357-0.021167v-0.5842q-0.067733-0.021167-0.1651-0.033867-0.093133-0.0127-0.19897-0.0127-0.097367 0-0.1905 0.016933-0.093133 0.0127-0.1651 0.0508-0.071967 0.0381-0.11853 0.1016-0.046567 0.059267-0.046567 0.1524 0 0.1905 0.127 0.2667 0.13123 0.071967 0.35137 0.071967zm-0.033867-1.7611q0.22013 0 0.3683 0.055033 0.1524 0.055033 0.24553 0.1524 0.093133 0.097367 0.13123 0.23707 0.0381 0.1397 0.0381 0.3048v1.2277q-0.12277 0.021167-0.32597 0.0508-0.19897 0.029633-0.41063 0.029633-0.16087 0-0.31327-0.029633-0.1524-0.0254-0.27093-0.093133-0.11853-0.071967-0.1905-0.19473-0.071967-0.12277-0.071967-0.31327 0-0.16933 0.071967-0.28363 0.0762-0.11853 0.1905-0.1905 0.11853-0.071967 0.2667-0.1016 0.1524-0.033867 0.3048-0.033867 0.20743 0 0.4064 0.046567v-0.097367q0-0.0889-0.021167-0.16933-0.016933-0.084667-0.071967-0.1524-0.0508-0.067733-0.14393-0.10583-0.0889-0.042333-0.23283-0.042333-0.18203 0-0.3175 0.0254-0.13547 0.0254-0.20743 0.0508l-0.042333-0.28787q0.071967-0.033867 0.23707-0.059267 0.16933-0.0254 0.35983-0.0254zm1.2785 1.0329q0-0.2667 0.084667-0.46143 0.084667-0.19473 0.23283-0.32173 0.14817-0.127 0.3429-0.18627 0.19897-0.0635 0.42333-0.0635 0.14393 0 0.28363 0.021167 0.14393 0.016933 0.3048 0.067733l-0.08043 0.30057q-0.1397-0.0508-0.25823-0.0635-0.1143-0.016933-0.23283-0.016933-0.1524 0-0.28787 0.042333-0.13547 0.0381-0.23707 0.127-0.097367 0.084667-0.15663 0.22437-0.059267 0.13547-0.059267 0.3302 0 0.18627 0.055033 0.32173 0.055033 0.13123 0.1524 0.22013 0.1016 0.084667 0.2413 0.127 0.1397 0.042333 0.30903 0.042333 0.13547 0 0.25823-0.0127 0.127-0.016933 0.27517-0.067733l0.0508 0.2921q-0.14817 0.055033-0.30057 0.0762-0.1524 0.0254-0.3302 0.0254-0.23707 0-0.43603-0.0635-0.19474-0.067733-0.33867-0.19473-0.1397-0.127-0.22013-0.3175-0.0762-0.19473-0.0762-0.44873zm2.9168-0.1016q0.1143 0.084667 0.25823 0.2159 0.14393 0.127 0.28363 0.27517 0.14393 0.14817 0.27093 0.3048 0.127 0.1524 0.2032 0.28363h-0.41487q-0.080434-0.13123-0.19897-0.2667-0.11853-0.1397-0.254-0.2667-0.13123-0.127-0.2667-0.23283-0.13123-0.10583-0.23707-0.1778v0.94403h-0.35137v-2.8744l0.35137-0.059267v1.7907q0.23283-0.2032 0.46567-0.40217 0.23283-0.2032 0.4191-0.4191h0.41063q-0.18203 0.2159-0.44027 0.4445-0.254 0.2286-0.49953 0.44027zm2.2056-0.93133q0.39793 0 0.61383 0.24977 0.2159 0.24553 0.2159 0.7493v0.12277h-1.4055q0.02117 0.3048 0.19897 0.46567 0.18203 0.15663 0.508 0.15663 0.18627 0 0.3175-0.029633 0.13123-0.029633 0.19897-0.0635l0.04657 0.29633q-0.0635 0.033867-0.2286 0.071967t-0.37253 0.0381q-0.254 0-0.44873-0.0762-0.1905-0.080433-0.3175-0.2159-0.127-0.13547-0.1905-0.32173-0.0635-0.1905-0.0635-0.41063 0-0.26247 0.08043-0.4572t0.21167-0.32173q0.13123-0.127 0.29633-0.1905 0.1651-0.0635 0.33867-0.0635zm0.47413 0.8382q0-0.24977-0.13123-0.3937-0.13123-0.14817-0.34713-0.14817-0.12277 0-0.22437 0.046567-0.09737 0.046567-0.16933 0.12277-0.07197 0.0762-0.1143 0.17357-0.04233 0.097367-0.05503 0.19897zm0.84667-0.7366q0.1905-0.046567 0.37677-0.071967 0.1905-0.0254 0.3556-0.0254 0.3937 0 0.59267 0.2032 0.2032 0.2032 0.2032 0.65193v1.1515h-0.34713v-1.088q0-0.1905-0.03387-0.30903-0.03387-0.11853-0.09737-0.18203-0.05927-0.067733-0.14817-0.093133-0.08467-0.0254-0.18627-0.0254-0.08467 0-0.18203 0.0127-0.09313 0.00847-0.18203 0.0254v1.6595h-0.35137zm3.2808 0.35983q-0.05927-0.055033-0.17357-0.1016-0.1143-0.0508-0.23707-0.0508-0.1397 0-0.2413 0.055033-0.09737 0.055033-0.16087 0.1524-0.0635 0.093133-0.09313 0.2286-0.02963 0.13123-0.02963 0.28363 0 0.3429 0.16087 0.52917 0.16087 0.18627 0.4191 0.18627 0.13123 0 0.22013-0.0127 0.09313-0.0127 0.13547-0.0254zm0-1.325 0.35137-0.059267v2.8787q-0.1143 0.033867-0.2921 0.067733-0.1778 0.033867-0.41487 0.033867-0.21167 0-0.38523-0.071967-0.17357-0.071967-0.29633-0.2032-0.12277-0.13547-0.1905-0.32597-0.06773-0.1905-0.06773-0.42757 0-0.2286 0.05503-0.41487 0.05927-0.1905 0.16933-0.32597 0.11007-0.13547 0.26247-0.21167 0.15663-0.0762 0.3556-0.0762 0.15663 0 0.27517 0.0381 0.11853 0.0381 0.1778 0.080433zm2.0235 2.6035q0 0.127-0.08467 0.22437-0.08467 0.097366-0.22437 0.097366-0.14393 0-0.2286-0.097366-0.08467-0.097367-0.08467-0.22437 0-0.13123 0.08467-0.2286 0.08467-0.097367 0.2286-0.097367 0.1397 0 0.22437 0.097367 0.08467 0.097367 0.08467 0.2286zm0-1.3674q0 0.127-0.08467 0.22437-0.08467 0.097367-0.22437 0.097367-0.14393 0-0.2286-0.097367-0.08467-0.097366-0.08467-0.22437 0-0.13123 0.08467-0.2286 0.08467-0.097367 0.2286-0.097367 0.1397 0 0.22437 0.097367 0.08467 0.097366 0.08467 0.2286z" fill="#888" stroke-linecap="square" stroke-width=".026" style="paint-order:stroke fill markers" aria-label="  Backend: "/>
</svg>
